<svg height="48" viewBox="0 0 48 48" width="48" xmlns="http://www.w3.org/2000/svg" xmlns:xlink="http://www.w3.org/1999/xlink"><linearGradient id="a" x1="26.59842%" x2="86.619971%" y1="5.747126%" y2="90.943786%"><stop offset="0" stop-color="#4a42ec"/><stop offset="1" stop-color="#fbf4ff"/></linearGradient><g fill="none" transform="translate(3 3)"><rect fill="url(#a)" height="30" rx="4" width="30"/><g fill="#4a42ec"><path d="m18.5 16c-.8284271 0-1.5-.6715729-1.5-1.5s.6715729-1.5 1.5-1.5h4c.8284271 0 1.5.6715729 1.5 1.5s-.6715729 1.5-1.5 1.5z"/><path d="m30.5 16c-.8284271 0-1.5-.6715729-1.5-1.5s.6715729-1.5 1.5-1.5h4c.8284271 0 1.5.6715729 1.5 1.5s-.6715729 1.5-1.5 1.5z"/><path d="m38.9986352 18.4161258c-.0270021-.8279869.6223244-1.5210925 1.4503113-1.5480946.827987-.0270022 1.5210926.6223243 1.5480947 1.4503113.002315.0839363.002315.0839363.0029469.1718001l.0000119 3.8869179c.0000025.8284271-.6715683 1.5000021-1.4999954 1.5000046s-1.5000021-.6715683-1.5000046-1.4999954l-.0000075-3.883306c-.0002904-.0389616-.0002904-.0389616-.0013573-.0776379z"/><path d="m39 30.3770651c0-.8284271.6715729-1.5 1.5-1.5s1.5.6715729 1.5 1.5v4c0 .8284271-.6715729 1.5-1.5 1.5s-1.5-.6715729-1.5-1.5z"/><path d="m36.6671313 38.9945576c.8266602-.0540771 1.5406389.5722253 1.594716 1.3988855.0540772.8266603-.5722252 1.540639-1.3988854 1.5947161-.1117841.0073125-.2240045.0112461-.3436224.0117951l-3.7734515.0000457c-.8284271.00001-1.5000081-.6715547-1.5000182-1.4999818-.00001-.8284272.6715548-1.5000082 1.4999819-1.5000182l3.7663758-.0000289c.0519325-.0002456.1035776-.0020559.1549038-.0054135z"/><path d="m24.7458698 39c.8284272 0 1.5.6715729 1.5 1.5s-.6715728 1.5-1.5 1.5h-4c-.8284271 0-1.5-.6715729-1.5-1.5s.6715729-1.5 1.5-1.5z"/><path d="m16.0121981 36.7496455c.0811396.824444-.5214276 1.5585645-1.3458716 1.6397041s-1.5585645-.5214276-1.6397041-1.3458716c-.0164605-.1672515-.0253179-.3356593-.0265246-.5151712l-.0000978-3.659462c-.0000221-.8284271.6715328-1.5000179 1.4999599-1.50004.8284271-.0000222 1.500018.6715327 1.5000401 1.4999599l.0000619 3.6491213c.0005394.077941.0046044.1552307.0121362.2317595z"/><path d="m16 24.8688048c0 .8284271-.6715729 1.5-1.5 1.5s-1.5-.6715729-1.5-1.5v-4c0-.8284272.6715729-1.5 1.5-1.5s1.5.6715728 1.5 1.5z"/><path d="m18.1683401 16.0216335c-.8213272.1082271-1.5748799-.4698547-1.6831071-1.2911819s.4698547-1.5748799 1.2911819-1.6831071c.2222364-.0292843.4468451-.0450616.6728809-.0471143.828393-.007523 1.5060368.6579235 1.5135598 1.4863165s-.6579236 1.5060368-1.4863165 1.5135598c-.1039883.0009443-.2068112.008167-.308199.021527z"/></g></g></svg>